<?xml version="1.0" encoding="UTF-8"?>
<!DOCTYPE svg PUBLIC "-//W3C//DTD SVG 1.1//EN" "http://www.w3.org/Graphics/SVG/1.1/DTD/svg11.dtd">
<svg xmlns="http://www.w3.org/2000/svg" version="1.1" width="380px" height="355px" style="shape-rendering:geometricPrecision; text-rendering:geometricPrecision; image-rendering:optimizeQuality; fill-rule:evenodd; clip-rule:evenodd" xmlns:xlink="http://www.w3.org/1999/xlink">
<g><path style="opacity:1" fill="#fefefe" d="M -0.5,-0.5 C 126.167,-0.5 252.833,-0.5 379.5,-0.5C 379.5,117.833 379.5,236.167 379.5,354.5C 252.833,354.5 126.167,354.5 -0.5,354.5C -0.5,236.167 -0.5,117.833 -0.5,-0.5 Z"/></g>
<g><path style="opacity:1" fill="#e7a245" d="M 199.5,67.5 C 198.799,64.4371 198.132,61.2704 197.5,58C 198.449,57.3828 199.282,57.5494 200,58.5C 200.495,56.5273 200.662,54.5273 200.5,52.5C 191.114,52.2201 181.78,52.5534 172.5,53.5C 172.611,52.8826 172.944,52.3826 173.5,52C 182.895,50.2154 192.228,50.2154 201.5,52C 202.081,52.8926 202.415,53.8926 202.5,55C 200.68,58.9797 199.68,63.1463 199.5,67.5 Z"/></g>
<g><path style="opacity:1" fill="#f3991d" d="M 199.5,67.5 C 199.5,67.8333 199.5,68.1667 199.5,68.5C 200.265,71.0961 200.599,73.7628 200.5,76.5C 193.535,76.2272 186.702,76.8939 180,78.5C 177.449,78.3751 174.949,78.0418 172.5,77.5C 171.508,69.6841 171.174,61.6841 171.5,53.5C 171.833,53.5 172.167,53.5 172.5,53.5C 181.78,52.5534 191.114,52.2201 200.5,52.5C 200.662,54.5273 200.495,56.5273 200,58.5C 199.282,57.5494 198.449,57.3828 197.5,58C 198.132,61.2704 198.799,64.4371 199.5,67.5 Z"/></g>
<g><path style="opacity:1" fill="#fcefd1" d="M 171.5,53.5 C 171.174,61.6841 171.508,69.6841 172.5,77.5C 172.611,78.1174 172.944,78.6174 173.5,79C 181.827,79.4997 190.16,79.6664 198.5,79.5C 189.628,80.8176 180.628,80.8176 171.5,79.5C 170.667,78.5 169.833,77.5 169,76.5C 168.169,69.144 168.335,61.8107 169.5,54.5C 170.183,54.1373 170.85,53.8039 171.5,53.5 Z"/></g>
<g><path style="opacity:1" fill="#e9a03b" d="M 199.5,68.5 C 201.478,69.3171 202.478,70.8171 202.5,73C 202.155,75.8308 200.822,77.9975 198.5,79.5C 190.16,79.6664 181.827,79.4997 173.5,79C 172.944,78.6174 172.611,78.1174 172.5,77.5C 174.949,78.0418 177.449,78.3751 180,78.5C 186.702,76.8939 193.535,76.2272 200.5,76.5C 200.599,73.7628 200.265,71.0961 199.5,68.5 Z"/></g>
<g><path style="opacity:1" fill="#d65672" d="M 179.5,93.5 C 177.456,92.9688 175.789,91.8022 174.5,90C 172.527,89.5045 170.527,89.3379 168.5,89.5C 169.799,87.9014 171.465,87.4014 173.5,88C 175.996,89.331 177.996,91.1644 179.5,93.5 Z"/></g>
<g><path style="opacity:1" fill="#e62051" d="M 168.5,89.5 C 170.527,89.3379 172.527,89.5045 174.5,90C 175.789,91.8022 177.456,92.9688 179.5,93.5C 180.974,94.4363 181.974,95.7697 182.5,97.5C 188.776,105.445 195.776,112.778 203.5,119.5C 205.5,120.833 207.167,122.5 208.5,124.5C 209.713,127.225 211.546,129.559 214,131.5C 214.497,133.81 214.663,136.143 214.5,138.5C 211.219,138.42 208.219,139.087 205.5,140.5C 200.821,140.334 196.155,140.501 191.5,141C 190.584,141.278 189.918,141.778 189.5,142.5C 188.167,142.5 186.833,142.5 185.5,142.5C 179.729,141.887 174.396,142.554 169.5,144.5C 168.167,144.5 166.833,144.5 165.5,144.5C 154.787,144.673 144.12,145.173 133.5,146C 132.409,143.936 132.242,141.769 133,139.5C 134.372,138.09 135.205,136.423 135.5,134.5C 146.121,119.214 157.121,104.214 168.5,89.5 Z"/></g>
<g><path style="opacity:1" fill="#d24563" d="M 182.5,97.5 C 190.224,104.222 197.224,111.555 203.5,119.5C 195.776,112.778 188.776,105.445 182.5,97.5 Z"/></g>
<g><path style="opacity:1" fill="#cf3f60" d="M 279.5,119.5 C 278.681,116.695 278.181,113.695 278,110.5C 277.5,110 277,109.5 276.5,109C 271.172,108.831 265.838,108.998 260.5,109.5C 265.911,107.632 271.577,107.132 277.5,108C 278,108.5 278.5,109 279,109.5C 279.498,112.817 279.665,116.15 279.5,119.5 Z"/></g>
<g><path style="opacity:1" fill="#e52051" d="M 279.5,119.5 C 282.236,121.858 283.07,124.858 282,128.5C 277.252,131.159 272.085,132.492 266.5,132.5C 265.127,132.657 263.793,132.49 262.5,132C 261.232,129.373 259.899,126.873 258.5,124.5C 257.979,120.519 257.646,116.519 257.5,112.5C 257.5,110.5 258.5,109.5 260.5,109.5C 265.838,108.998 271.172,108.831 276.5,109C 277,109.5 277.5,110 278,110.5C 278.181,113.695 278.681,116.695 279.5,119.5 Z"/></g>
<g><path style="opacity:1" fill="#fed0e1" d="M 257.5,112.5 C 257.646,116.519 257.979,120.519 258.5,124.5C 258.5,125.833 258.5,127.167 258.5,128.5C 256.476,123.245 256.143,117.911 257.5,112.5 Z"/></g>
<g><path style="opacity:1" fill="#d6506c" d="M 258.5,124.5 C 259.899,126.873 261.232,129.373 262.5,132C 263.793,132.49 265.127,132.657 266.5,132.5C 262.417,134.453 259.75,133.12 258.5,128.5C 258.5,127.167 258.5,125.833 258.5,124.5 Z"/></g>
<g><path style="opacity:1" fill="#fde0a2" d="M 79.5,136.5 C 76.4299,136.368 73.4299,136.701 70.5,137.5C 70.6107,136.883 70.944,136.383 71.5,136C 74.367,135.199 77.0336,135.366 79.5,136.5 Z"/></g>
<g><path style="opacity:1" fill="#d23558" d="M 208.5,124.5 C 211.464,126.962 214.297,129.629 217,132.5C 217.982,135.775 217.149,138.441 214.5,140.5C 211.5,140.5 208.5,140.5 205.5,140.5C 208.219,139.087 211.219,138.42 214.5,138.5C 214.663,136.143 214.497,133.81 214,131.5C 211.546,129.559 209.713,127.225 208.5,124.5 Z"/></g>
<g><path style="opacity:1" fill="#66bec9" d="M 108.5,135.5 C 116.505,134.342 119.339,137.675 117,145.5C 113.667,149.5 110.333,149.5 107,145.5C 106.037,141.851 106.537,138.518 108.5,135.5 Z"/></g>
<g><path style="opacity:1" fill="#e7a13e" d="M 79.5,136.5 C 80.391,137.11 81.391,137.443 82.5,137.5C 83.7815,140.936 83.7815,144.269 82.5,147.5C 82.8134,144.753 82.48,142.086 81.5,139.5C 77.9062,138.574 74.2396,138.241 70.5,138.5C 70.5,138.167 70.5,137.833 70.5,137.5C 73.4299,136.701 76.4299,136.368 79.5,136.5 Z"/></g>
<g><path style="opacity:1" fill="#f3991f" d="M 70.5,138.5 C 74.2396,138.241 77.9062,138.574 81.5,139.5C 82.48,142.086 82.8134,144.753 82.5,147.5C 82.5,148.167 82.1667,148.5 81.5,148.5C 77.8333,148.5 74.1667,148.5 70.5,148.5C 70.5,145.167 70.5,141.833 70.5,138.5 Z"/></g>
<g><path style="opacity:1" fill="#c4d221" d="M 99.5,136.5 C 100.5,136.833 101.167,137.5 101.5,138.5C 101.425,141.206 101.092,143.873 100.5,146.5C 97.5071,147.135 94.5071,147.301 91.5,147C 88.7795,139.362 91.4462,135.862 99.5,136.5 Z"/></g>
<g><path style="opacity:1" fill="#fdfddc" d="M 89.5,137.5 C 87.6669,142.017 88.3336,146.017 91.5,149.5C 89.629,149.141 88.129,148.141 87,146.5C 86.502,143.518 86.3354,140.518 86.5,137.5C 87.5,137.5 88.5,137.5 89.5,137.5 Z"/></g>
<g><path style="opacity:1" fill="#d03e5d" d="M 205.5,140.5 C 200.354,141.551 195.021,142.218 189.5,142.5C 189.918,141.778 190.584,141.278 191.5,141C 196.155,140.501 200.821,140.334 205.5,140.5 Z"/></g>
<g><path style="opacity:1" fill="#cbd45b" d="M 266.5,145.5 C 265.089,144.092 263.423,143.092 261.5,142.5C 259.823,143.187 258.156,143.854 256.5,144.5C 256.874,142.05 258.374,141.05 261,141.5C 264.133,141.142 265.967,142.475 266.5,145.5 Z"/></g>
<g><path style="opacity:1" fill="#e8bc7c" d="M 70.5,137.5 C 70.5,137.833 70.5,138.167 70.5,138.5C 69.5233,141.287 69.19,144.287 69.5,147.5C 68.8401,146.036 68.5068,144.369 68.5,142.5C 68.5561,140.36 69.2227,138.694 70.5,137.5 Z"/></g>
<g><path style="opacity:1" fill="#c8d14b" d="M 99.5,136.5 C 91.4462,135.862 88.7795,139.362 91.5,147C 94.5071,147.301 97.5071,147.135 100.5,146.5C 101.092,143.873 101.425,141.206 101.5,138.5C 103.655,146.693 100.321,150.359 91.5,149.5C 88.3336,146.017 87.6669,142.017 89.5,137.5C 89.6107,136.883 89.944,136.383 90.5,136C 93.6965,135.195 96.6965,135.362 99.5,136.5 Z"/></g>
<g><path style="opacity:1" fill="#d44665" d="M 185.5,142.5 C 180.331,143.381 174.998,144.048 169.5,144.5C 174.396,142.554 179.729,141.887 185.5,142.5 Z"/></g>
<g><path style="opacity:1" fill="#c5d226" d="M 266.5,145.5 C 270.072,151.641 273.405,157.974 276.5,164.5C 278.207,168.719 280.207,172.719 282.5,176.5C 282.5,176.833 282.5,177.167 282.5,177.5C 283.092,180.631 282.092,182.964 279.5,184.5C 274.848,184.002 270.181,183.669 265.5,183.5C 263.5,183.5 261.5,183.5 259.5,183.5C 255.433,181.946 251.1,181.28 246.5,181.5C 242.838,181.966 239.505,181.299 236.5,179.5C 235.17,176.56 235.337,173.56 237,170.5C 243.756,161.926 250.256,153.26 256.5,144.5C 258.156,143.854 259.823,143.187 261.5,142.5C 263.423,143.092 265.089,144.092 266.5,145.5 Z"/></g>
<g><path style="opacity:1" fill="#ffe6f2" d="M 205.5,140.5 C 208.5,140.5 211.5,140.5 214.5,140.5C 208.946,141.701 203.279,142.867 197.5,144C 180.195,145.569 162.862,146.735 145.5,147.5C 152.127,146.196 158.794,145.196 165.5,144.5C 166.833,144.5 168.167,144.5 169.5,144.5C 174.998,144.048 180.331,143.381 185.5,142.5C 186.833,142.5 188.167,142.5 189.5,142.5C 195.021,142.218 200.354,141.551 205.5,140.5 Z"/></g>
<g><path style="opacity:1" fill="#d24463" d="M 135.5,134.5 C 135.205,136.423 134.372,138.09 133,139.5C 132.242,141.769 132.409,143.936 133.5,146C 144.12,145.173 154.787,144.673 165.5,144.5C 158.794,145.196 152.127,146.196 145.5,147.5C 140.901,147.8 136.401,147.467 132,146.5C 129.451,141.406 130.618,137.406 135.5,134.5 Z"/></g>
<g><path style="opacity:1" fill="#e49c3b" d="M 70.5,138.5 C 70.5,141.833 70.5,145.167 70.5,148.5C 74.1667,148.5 77.8333,148.5 81.5,148.5C 81.3893,149.117 81.056,149.617 80.5,150C 77.5184,150.498 74.5184,150.665 71.5,150.5C 70.0937,150.027 69.427,149.027 69.5,147.5C 69.19,144.287 69.5233,141.287 70.5,138.5 Z"/></g>
<g><path style="opacity:1" fill="#fff8dc" d="M 82.5,137.5 C 83.7868,138.871 84.4535,140.705 84.5,143C 83.7662,152.281 79.4329,154.781 71.5,150.5C 74.5184,150.665 77.5184,150.498 80.5,150C 81.056,149.617 81.3893,149.117 81.5,148.5C 82.1667,148.5 82.5,148.167 82.5,147.5C 83.7815,144.269 83.7815,140.936 82.5,137.5 Z"/></g>
<g><path style="opacity:1" fill="#e3fbfc" d="M 219.5,155.5 C 188.821,155.79 158.155,156.457 127.5,157.5C 132.483,156.223 137.65,155.223 143,154.5C 168.638,154.601 194.138,154.934 219.5,155.5 Z"/></g>
<g><path style="opacity:1" fill="#5dbfca" d="M 219.5,155.5 C 223.008,157.425 224.341,160.425 223.5,164.5C 224.021,179.516 224.521,194.516 225,209.5C 224.167,210.333 223.333,211.167 222.5,212C 212.839,212.5 203.172,212.666 193.5,212.5C 192.21,211.942 191.377,210.942 191,209.5C 190.667,204.5 190.333,199.5 190,194.5C 188.286,181.777 181.119,176.277 168.5,178C 165.989,180.179 163.822,182.679 162,185.5C 160.827,194.116 160.161,202.783 160,211.5C 159.167,212.333 158.333,213.167 157.5,214C 147.733,214.947 138.066,214.613 128.5,213C 127.874,212.25 127.374,211.416 127,210.5C 125.975,193.507 125.641,176.507 126,159.5C 126.717,158.956 127.217,158.289 127.5,157.5C 158.155,156.457 188.821,155.79 219.5,155.5 Z"/></g>
<g><path style="opacity:1" fill="#db4c69" d="M 114.5,182.5 C 115.517,175.195 115.683,167.861 115,160.5C 114.626,159.584 114.126,158.75 113.5,158C 104.189,158.232 94.8555,158.398 85.5,158.5C 94.6162,156.619 103.95,155.786 113.5,156C 114.667,157.167 115.833,158.333 117,159.5C 117.667,166.5 117.667,173.5 117,180.5C 116.292,181.381 115.458,182.047 114.5,182.5 Z"/></g>
<g><path style="opacity:1" fill="#e71f50" d="M 114.5,182.5 C 100.494,183.072 86.4941,183.739 72.5,184.5C 72.3336,176.826 72.5003,169.159 73,161.5C 77.2143,161.173 81.0476,160.173 84.5,158.5C 84.8333,158.5 85.1667,158.5 85.5,158.5C 94.8555,158.398 104.189,158.232 113.5,158C 114.126,158.75 114.626,159.584 115,160.5C 115.683,167.861 115.517,175.195 114.5,182.5 Z"/></g>
<g><path style="opacity:1" fill="#d13c5d" d="M 84.5,158.5 C 81.0476,160.173 77.2143,161.173 73,161.5C 72.5003,169.159 72.3336,176.826 72.5,184.5C 71.8826,184.389 71.3826,184.056 71,183.5C 70.3333,176.167 70.3333,168.833 71,161.5C 75.0873,159.003 79.5873,158.003 84.5,158.5 Z"/></g>
<g><path style="opacity:1" fill="#fbfcd6" d="M 276.5,164.5 C 277.376,164.369 278.043,164.702 278.5,165.5C 280.136,169.096 281.469,172.762 282.5,176.5C 280.207,172.719 278.207,168.719 276.5,164.5 Z"/></g>
<g><path style="opacity:1" fill="#fdfdd8" d="M 236.5,179.5 C 239.505,181.299 242.838,181.966 246.5,181.5C 248.167,182.167 249.833,182.833 251.5,183.5C 246.518,182.947 241.518,182.613 236.5,182.5C 236.5,181.5 236.5,180.5 236.5,179.5 Z"/></g>
<g><path style="opacity:1" fill="#e0e77f" d="M 246.5,181.5 C 251.1,181.28 255.433,181.946 259.5,183.5C 257.5,183.5 255.5,183.5 253.5,183.5C 252.833,183.5 252.167,183.5 251.5,183.5C 249.833,182.833 248.167,182.167 246.5,181.5 Z"/></g>
<g><path style="opacity:1" fill="#d13b5c" d="M 114.5,182.5 C 113.432,183.434 112.099,183.768 110.5,183.5C 101.33,184.243 92.3298,185.243 83.5,186.5C 80.1501,186.665 76.8168,186.498 73.5,186C 72.944,185.617 72.6107,185.117 72.5,184.5C 86.4941,183.739 100.494,183.072 114.5,182.5 Z"/></g>
<g><path style="opacity:1" fill="#fed8e6" d="M 110.5,183.5 C 101.812,186.029 92.8117,187.029 83.5,186.5C 92.3298,185.243 101.33,184.243 110.5,183.5 Z"/></g>
<g><path style="opacity:1" fill="#fdfdd9" d="M 282.5,177.5 C 284.47,183.552 282.137,186.552 275.5,186.5C 268.025,185.493 260.691,184.493 253.5,183.5C 255.5,183.5 257.5,183.5 259.5,183.5C 261.5,183.5 263.5,183.5 265.5,183.5C 270.087,185.456 274.754,185.789 279.5,184.5C 282.092,182.964 283.092,180.631 282.5,177.5 Z"/></g>
<g><path style="opacity:1" fill="#dde57a" d="M 265.5,183.5 C 270.181,183.669 274.848,184.002 279.5,184.5C 274.754,185.789 270.087,185.456 265.5,183.5 Z"/></g>
<g><path style="opacity:1" fill="#f6bf71" d="M 87.5,194.5 C 82.4376,194.274 77.4376,194.608 72.5,195.5C 72.6107,194.883 72.944,194.383 73.5,194C 78.3522,193.185 83.0189,193.352 87.5,194.5 Z"/></g>
<g><path style="opacity:1" fill="#e2f9fb" d="M 223.5,164.5 C 226.412,179.927 227.079,195.593 225.5,211.5C 224.354,212.145 223.354,212.978 222.5,214C 217.667,214.167 212.833,214.333 208,214.5C 202.784,214.494 197.951,213.827 193.5,212.5C 203.172,212.666 212.839,212.5 222.5,212C 223.333,211.167 224.167,210.333 225,209.5C 224.521,194.516 224.021,179.516 223.5,164.5 Z"/></g>
<g><path style="opacity:1" fill="#f4991f" d="M 285.5,194.5 C 286.728,195.306 287.728,196.306 288.5,197.5C 288.667,212.837 288.5,228.17 288,243.5C 287.617,244.056 287.117,244.389 286.5,244.5C 269.12,244.806 251.786,244.472 234.5,243.5C 234.175,227.256 234.509,211.089 235.5,195C 252.163,194.5 268.83,194.333 285.5,194.5 Z"/></g>
<g><path style="opacity:1" fill="#f2991f" d="M 87.5,194.5 C 88.5,194.833 89.1667,195.5 89.5,196.5C 89.8229,202.69 89.4896,208.69 88.5,214.5C 83.1667,214.5 77.8333,214.5 72.5,214.5C 72.5,208.167 72.5,201.833 72.5,195.5C 77.4376,194.608 82.4376,194.274 87.5,194.5 Z"/></g>
<g><path style="opacity:1" fill="#e52a54" d="M 117.5,195.5 C 122.742,211.427 117.075,217.927 100.5,215C 99.6195,214.292 98.9528,213.458 98.5,212.5C 95.0475,195.954 101.381,190.287 117.5,195.5 Z"/></g>
<g><path style="opacity:1" fill="#d14163" d="M 117.5,195.5 C 101.381,190.287 95.0475,195.954 98.5,212.5C 93.3337,195.83 99.3337,189.664 116.5,194C 117.056,194.383 117.389,194.883 117.5,195.5 Z"/></g>
<g><path style="opacity:1" fill="#e59e3c" d="M 72.5,195.5 C 72.5,201.833 72.5,208.167 72.5,214.5C 77.8333,214.5 83.1667,214.5 88.5,214.5C 88.3893,215.117 88.056,215.617 87.5,216C 82.8452,216.499 78.1785,216.666 73.5,216.5C 72.5313,215.691 71.6979,214.691 71,213.5C 70.3333,207.833 70.3333,202.167 71,196.5C 71.3826,195.944 71.8826,195.611 72.5,195.5 Z"/></g>
<g><path style="opacity:1" fill="#e29b38" d="M 285.5,194.5 C 268.83,194.333 252.163,194.5 235.5,195C 234.509,211.089 234.175,227.256 234.5,243.5C 234.167,243.5 233.833,243.5 233.5,243.5C 233.5,227.5 233.5,211.5 233.5,195.5C 233.611,194.883 233.944,194.383 234.5,194C 251.672,193.172 268.672,193.338 285.5,194.5 Z"/></g>
<g><path style="opacity:1" fill="#fcecc9" d="M 89.5,196.5 C 90.8181,203.011 90.8181,209.678 89.5,216.5C 86.7784,218.063 83.7784,218.729 80.5,218.5C 77.7305,218.471 75.3972,217.805 73.5,216.5C 78.1785,216.666 82.8452,216.499 87.5,216C 88.056,215.617 88.3893,215.117 88.5,214.5C 89.4896,208.69 89.8229,202.69 89.5,196.5 Z"/></g>
<g><path style="opacity:1" fill="#fbfdc1" d="M 117.5,221.5 C 103.161,221.647 88.828,221.98 74.5,222.5C 88.8031,220.456 103.136,220.123 117.5,221.5 Z"/></g>
<g><path style="opacity:1" fill="#cad258" d="M 117.5,221.5 C 117.5,221.833 117.5,222.167 117.5,222.5C 117.5,222.833 117.5,223.167 117.5,223.5C 102.905,222.766 88.2386,222.766 73.5,223.5C 73.5,222.833 73.8333,222.5 74.5,222.5C 88.828,221.98 103.161,221.647 117.5,221.5 Z"/></g>
<g><path style="opacity:1" fill="#c5d225" d="M 117.5,223.5 C 118.117,223.611 118.617,223.944 119,224.5C 119.813,232.08 119.647,239.58 118.5,247C 106.931,248.396 95.2639,249.229 83.5,249.5C 80.1667,249.333 76.8333,249.167 73.5,249C 72.9558,248.283 72.2891,247.783 71.5,247.5C 70.3703,240.246 70.2036,232.913 71,225.5C 71.7083,224.619 72.5416,223.953 73.5,223.5C 88.2386,222.766 102.905,222.766 117.5,223.5 Z"/></g>
<g><path style="opacity:1" fill="#e61f51" d="M 198.5,246.5 C 197.883,246.389 197.383,246.056 197,245.5C 196.501,240.845 196.334,236.179 196.5,231.5C 195.875,228.03 196.875,225.196 199.5,223C 207.167,222.333 214.833,222.333 222.5,223C 223,223.5 223.5,224 224,224.5C 224.5,231.826 224.666,239.159 224.5,246.5C 215.833,246.5 207.167,246.5 198.5,246.5 Z"/></g>
<g><path style="opacity:1" fill="#fbe5bb" d="M 233.5,195.5 C 233.5,211.5 233.5,227.5 233.5,243.5C 232.245,228.34 231.745,213.007 232,197.5C 232.278,196.584 232.778,195.918 233.5,195.5 Z"/></g>
<g><path style="opacity:1" fill="#d2395a" d="M 130.5,246.5 C 129.883,246.389 129.383,246.056 129,245.5C 128.333,238.833 128.333,232.167 129,225.5C 129.465,224.069 130.299,222.903 131.5,222C 139.833,221.333 148.167,221.333 156.5,222C 157,222.5 157.5,223 158,223.5C 158.667,231.167 158.667,238.833 158,246.5C 157.5,247 157,247.5 156.5,248C 148.167,248.667 139.833,248.667 131.5,248C 130.944,247.617 130.611,247.117 130.5,246.5 Z"/></g>
<g><path style="opacity:1" fill="#e71f50" d="M 130.5,246.5 C 130.334,239.159 130.5,231.826 131,224.5C 131.5,224 132,223.5 132.5,223C 140.413,222.186 148.246,222.353 156,223.5C 156.5,231.159 156.666,238.826 156.5,246.5C 147.833,246.5 139.167,246.5 130.5,246.5 Z"/></g>
<g><path style="opacity:1" fill="#d33f5f" d="M 198.5,246.5 C 207.167,246.5 215.833,246.5 224.5,246.5C 224.666,239.159 224.5,231.826 224,224.5C 223.5,224 223,223.5 222.5,223C 214.833,222.333 207.167,222.333 199.5,223C 196.875,225.196 195.875,228.03 196.5,231.5C 194.8,227.927 195.467,224.761 198.5,222C 206.833,221.333 215.167,221.333 223.5,222C 224.333,222.833 225.167,223.667 226,224.5C 226.667,231.5 226.667,238.5 226,245.5C 225.692,246.308 225.192,246.975 224.5,247.5C 216.215,248.636 207.882,248.803 199.5,248C 198.944,247.617 198.611,247.117 198.5,246.5 Z"/></g>
<g><path style="opacity:1" fill="#fffae2" d="M 288.5,197.5 C 289.314,199.631 289.814,201.964 290,204.5C 290.667,217.5 290.667,230.5 290,243.5C 288.5,245 287,246.5 285.5,248C 268.833,248.667 252.167,248.667 235.5,248C 234.418,246.67 233.751,245.17 233.5,243.5C 233.833,243.5 234.167,243.5 234.5,243.5C 234.804,244.15 235.137,244.817 235.5,245.5C 252.157,246.666 268.823,246.833 285.5,246C 286.056,245.617 286.389,245.117 286.5,244.5C 287.117,244.389 287.617,244.056 288,243.5C 288.5,228.17 288.667,212.837 288.5,197.5 Z"/></g>
<g><path style="opacity:1" fill="#e59e3e" d="M 234.5,243.5 C 251.786,244.472 269.12,244.806 286.5,244.5C 286.389,245.117 286.056,245.617 285.5,246C 268.823,246.833 252.157,246.666 235.5,245.5C 235.137,244.817 234.804,244.15 234.5,243.5 Z"/></g>
<g><path style="opacity:1" fill="#fbfdcf" d="M 117.5,223.5 C 117.5,223.167 117.5,222.833 117.5,222.5C 118.496,222.414 119.329,222.748 120,223.5C 120.667,231.5 120.667,239.5 120,247.5C 119.075,248.047 118.242,248.713 117.5,249.5C 102.181,250.499 86.8478,250.833 71.5,250.5C 71.5,249.5 71.5,248.5 71.5,247.5C 72.2891,247.783 72.9558,248.283 73.5,249C 76.8333,249.167 80.1667,249.333 83.5,249.5C 95.2639,249.229 106.931,248.396 118.5,247C 119.647,239.58 119.813,232.08 119,224.5C 118.617,223.944 118.117,223.611 117.5,223.5 Z"/></g>
<g><path style="opacity:1" fill="#ecfdfe" d="M 289.5,256.5 C 288.038,255.542 286.705,254.376 285.5,253C 257.495,252.418 229.495,252.585 201.5,253.5C 213.042,252.54 224.709,251.54 236.5,250.5C 252.566,250.676 268.899,250.842 285.5,251C 287.819,252.147 289.152,253.981 289.5,256.5 Z"/></g>
<g><path style="opacity:1" fill="#61c0cb" d="M 289.5,256.5 C 294.659,262.135 299.826,267.801 305,273.5C 307.291,276.835 306.791,279.668 303.5,282C 269.833,282.667 236.167,282.667 202.5,282C 201.667,281.167 200.833,280.333 200,279.5C 199.333,271.5 199.333,263.5 200,255.5C 200.717,254.956 201.217,254.289 201.5,253.5C 229.495,252.585 257.495,252.418 285.5,253C 286.705,254.376 288.038,255.542 289.5,256.5 Z"/></g>
<g><path style="opacity:1" fill="#e62151" d="M 67.5,254.5 C 91.5263,254.501 115.526,255.168 139.5,256.5C 144.64,257.114 149.806,258.114 155,259.5C 155.731,267.202 155.564,274.869 154.5,282.5C 145.326,282.84 136.326,283.507 127.5,284.5C 104.498,284.667 81.4976,284.5 58.5,284C 57.9186,283.107 57.5852,282.107 57.5,281C 59.2152,277.354 60.2152,273.521 60.5,269.5C 62.0321,264.104 64.3654,259.104 67.5,254.5 Z"/></g>
<g><path style="opacity:1" fill="#ffe8f3" d="M 153.5,285.5 C 153.5,285.167 153.5,284.833 153.5,284.5C 154.794,283.71 155.961,282.71 157,281.5C 157.667,274.167 157.667,266.833 157,259.5C 156.167,258.667 155.333,257.833 154.5,257C 149.511,256.501 144.511,256.334 139.5,256.5C 115.526,255.168 91.5263,254.501 67.5,254.5C 73.9658,253.17 80.7991,252.503 88,252.5C 110.101,253.841 132.267,254.841 154.5,255.5C 156.088,256.01 157.255,257.01 158,258.5C 158.667,266.5 158.667,274.5 158,282.5C 156.871,284.141 155.371,285.141 153.5,285.5 Z"/></g>
<g><path style="opacity:1" fill="#d53759" d="M 139.5,256.5 C 144.511,256.334 149.511,256.501 154.5,257C 155.333,257.833 156.167,258.667 157,259.5C 157.667,266.833 157.667,274.167 157,281.5C 155.961,282.71 154.794,283.71 153.5,284.5C 144.833,284.5 136.167,284.5 127.5,284.5C 136.326,283.507 145.326,282.84 154.5,282.5C 155.564,274.869 155.731,267.202 155,259.5C 149.806,258.114 144.64,257.114 139.5,256.5 Z"/></g>
<g><path style="opacity:1" fill="#dd5772" d="M 60.5,269.5 C 60.2152,273.521 59.2152,277.354 57.5,281C 57.5852,282.107 57.9186,283.107 58.5,284C 81.4976,284.5 104.498,284.667 127.5,284.5C 136.167,284.5 144.833,284.5 153.5,284.5C 153.5,284.833 153.5,285.167 153.5,285.5C 121.826,285.572 90.1594,285.738 58.5,286C 56.6431,284.818 55.6431,283.151 55.5,281C 56.7981,276.914 58.4647,273.081 60.5,269.5 Z"/></g>
</svg>
